<svg xmlns="http://www.w3.org/2000/svg" width="36" height="36" viewBox="0 0 36 36">
  <g id="Group_276" data-name="Group 276" transform="translate(-1299 -257)">
    <rect id="Rectangle_1089" data-name="Rectangle 1089" width="36" height="36" rx="18" transform="translate(1299 257)" fill="#06529c"/>
    <g id="icons_utility_check-copy" data-name="icons/utility/check-copy" transform="translate(1309.385 269.923)">
      <path id="Mask" d="M5.831,10.369.754,5.262a.483.483,0,0,1,0-.677l.677-.677a.483.483,0,0,1,.677,0L5.923,7.754a.335.335,0,0,0,.462,0L13.862.215a.483.483,0,0,1,.677,0l.677.677a.483.483,0,0,1,0,.677l-8.708,8.8a.435.435,0,0,1-.677,0Z" fill="#fff"/>
    </g>
  </g>
</svg>
