<svg xmlns="http://www.w3.org/2000/svg" width="40" height="40" viewBox="0 0 40 40">
  <g id="Group_271" data-name="Group 271" transform="translate(-670 -345)">
    <circle id="Ellipse_1654" data-name="Ellipse 1654" cx="20" cy="20" r="20" transform="translate(670 345)" fill="#06529c"/>
    <g id="icons_utility_video" data-name="icons/utility/video" transform="translate(679.385 358.308)">
      <path id="Mask" d="M19.8.863,15.1,4.239V1.846A1.149,1.149,0,0,0,13.949.692H1.769A1.149,1.149,0,0,0,.615,1.846v9.1A1.149,1.149,0,0,0,1.769,12.1H13.991a1.149,1.149,0,0,0,1.154-1.154V8.6L19.8,11.932a.477.477,0,0,0,.812-.342V1.205A.477.477,0,0,0,19.8.863Z" fill="#fff"/>
    </g>
  </g>
</svg>
