<svg xmlns="http://www.w3.org/2000/svg" width="40" height="40" viewBox="0 0 40 40">
  <g id="Group_274" data-name="Group 274" transform="translate(-670 -585)">
    <circle id="Ellipse_1660" data-name="Ellipse 1660" cx="20" cy="20" r="20" transform="translate(670 585)" fill="#06529c"/>
    <g id="icons_utility_edit_form" data-name="icons/utility/edit_form" transform="translate(679.385 594.769)">
      <path id="Mask" d="M13.4,5.579h3.565a.483.483,0,0,0,.478-.478.578.578,0,0,0-.13-.348L12.876.361a.578.578,0,0,0-.348-.13.483.483,0,0,0-.478.478V4.231A1.355,1.355,0,0,0,13.4,5.579Zm7.87,4.522-.391-.391a.682.682,0,0,0-.957,0l-5.174,5.174c-.043.043,0,.087,0,.13V16.1c0,.087,0,.174.087.174h1.13c.043,0,.087-.043.13-.043l5.174-5.13a.66.66,0,0,0,0-1Zm-4.174,8.131H14.007a1.262,1.262,0,0,1-1.261-1.261V14.622a1.055,1.055,0,0,1,.391-.913l4.13-4.13a.7.7,0,0,0,.217-.478v-.87a.669.669,0,0,0-.652-.652H12.05a2,2,0,0,1-2-2V.883a.679.679,0,0,0-.7-.652H2.615a2.023,2.023,0,0,0-2,2v16a2.023,2.023,0,0,0,2,2H15.4a2.052,2.052,0,0,0,2-1.609.346.346,0,0,0-.3-.391Zm-13.783-12a.669.669,0,0,1,.652-.652h2.7a.64.64,0,0,1,.652.652v.652a.669.669,0,0,1-.652.652h-2.7a.64.64,0,0,1-.652-.652Zm6.739,8.652a.669.669,0,0,1-.652.652H3.963a.64.64,0,0,1-.652-.652v-.652a.669.669,0,0,1,.652-.652H9.355a.64.64,0,0,1,.652.652v.652Zm1.348-4a.669.669,0,0,1-.652.652H3.963a.64.64,0,0,1-.652-.652v-.652a.669.669,0,0,1,.652-.652H10.7a.64.64,0,0,1,.652.652v.652Z" transform="translate(0 0)" fill="#fff"/>
    </g>
  </g>
</svg>
