<svg xmlns="http://www.w3.org/2000/svg" width="40" height="40" viewBox="0 0 40 40">
  <g id="Group_272" data-name="Group 272" transform="translate(-670 -425)">
    <circle id="Ellipse_1658" data-name="Ellipse 1658" cx="20" cy="20" r="20" transform="translate(670 425)" fill="#06529c"/>
    <g id="icons_utility_copy" data-name="icons/utility/copy" transform="translate(680.769 434.385)">
      <path id="Mask" d="M16.9.615H6.064A1.672,1.672,0,0,0,4.4,2.282v.833h10a1.672,1.672,0,0,1,1.667,1.667V16.449H16.9a1.672,1.672,0,0,0,1.667-1.667V2.282A1.672,1.672,0,0,0,16.9.615ZM14.4,6.449a1.672,1.672,0,0,0-1.667-1.667H1.9A1.672,1.672,0,0,0,.231,6.449v12.5A1.672,1.672,0,0,0,1.9,20.615H12.731A1.672,1.672,0,0,0,14.4,18.949ZM6.9,9.365a.394.394,0,0,1-.417.417H3.147a.394.394,0,0,1-.417-.417V8.532a.394.394,0,0,1,.417-.417H6.481a.394.394,0,0,1,.417.417Zm3.333,6.667a.394.394,0,0,1-.417.417H3.147a.394.394,0,0,1-.417-.417V15.2a.394.394,0,0,1,.417-.417H9.814a.394.394,0,0,1,.417.417ZM11.9,12.7a.394.394,0,0,1-.417.417H3.147a.394.394,0,0,1-.417-.417v-.833a.394.394,0,0,1,.417-.417h8.333a.394.394,0,0,1,.417.417Z" transform="translate(0 0)" fill="#fff"/>
    </g>
  </g>
</svg>
