<svg xmlns="http://www.w3.org/2000/svg" width="40" height="40" viewBox="0 0 40 40">
  <g id="Group_273" data-name="Group 273" transform="translate(-670 -505)">
    <circle id="Ellipse_1659" data-name="Ellipse 1659" cx="20" cy="20" r="20" transform="translate(670 505)" fill="#06529c"/>
    <g id="icons_utility_description-copy" data-name="icons/utility/description-copy" transform="translate(679.769 514.769)">
      <path id="Mask" d="M18.413.231H2.049A1.824,1.824,0,0,0,.231,2.049V18.413a1.824,1.824,0,0,0,1.818,1.818H18.413a1.824,1.824,0,0,0,1.818-1.818V2.049A1.824,1.824,0,0,0,18.413.231ZM3.867,4.776a.429.429,0,0,1,.455-.455H8.867a.429.429,0,0,1,.455.455V9.322a.429.429,0,0,1-.455.455H4.322a.429.429,0,0,1-.455-.455ZM14.776,16.595a.429.429,0,0,1-.455.455h-10a.429.429,0,0,1-.455-.455v-.909a.429.429,0,0,1,.455-.455h10a.429.429,0,0,1,.455.455Zm1.818-3.636a.429.429,0,0,1-.455.455H4.322a.429.429,0,0,1-.455-.455v-.909a.429.429,0,0,1,.455-.455H16.14a.429.429,0,0,1,.455.455Zm0-3.636a.429.429,0,0,1-.455.455H11.595a.429.429,0,0,1-.455-.455V8.413a.429.429,0,0,1,.455-.455H16.14a.429.429,0,0,1,.455.455Zm0-3.636a.429.429,0,0,1-.455.455H11.595a.429.429,0,0,1-.455-.455V4.776a.429.429,0,0,1,.455-.455H16.14a.429.429,0,0,1,.455.455Z" transform="translate(0 0)" fill="#fff"/>
    </g>
  </g>
</svg>
