<svg xmlns="http://www.w3.org/2000/svg" width="40" height="40" viewBox="0 0 40 40">
  <g id="Group_275" data-name="Group 275" transform="translate(-670 -665)">
    <circle id="Ellipse_1661" data-name="Ellipse 1661" cx="20" cy="20" r="20" transform="translate(670 665)" fill="#06529c"/>
    <g id="icons_utility_link-copy" data-name="icons/utility/link-copy" transform="translate(679.385 674.385)">
      <path id="Mask" d="M11.152,17.129,10.275,17a6.455,6.455,0,0,1-.878-.251.549.549,0,0,0-.5.125l-.209.209a3.287,3.287,0,0,1-4.431.251,3.2,3.2,0,0,1-.167-4.681L7.265,9.48a3.551,3.551,0,0,1,1.421-.836,3.287,3.287,0,0,1,2.006.125,3.479,3.479,0,0,1,1.087.711,2.683,2.683,0,0,1,.418.543.453.453,0,0,0,.752.084l1.17-1.17a.5.5,0,0,0,.042-.627,4.474,4.474,0,0,0-.585-.669,4.668,4.668,0,0,0-1-.794,5.338,5.338,0,0,0-1.965-.752,5.976,5.976,0,0,0-3.887.585,5.793,5.793,0,0,0-1.3.961L2.375,10.693a5.811,5.811,0,0,0-.251,8.067,5.721,5.721,0,0,0,8.276.167l1.045-1.045c.293-.209.084-.711-.293-.752ZM18.843,2.124a5.808,5.808,0,0,0-8.067.251l-.961.92a.5.5,0,0,0,.293.836,8.665,8.665,0,0,1,1.756.334.549.549,0,0,0,.5-.125l.209-.209A3.287,3.287,0,0,1,17,3.879a3.2,3.2,0,0,1,.167,4.681l-3.177,3.177a3.551,3.551,0,0,1-1.421.836,3.287,3.287,0,0,1-2.006-.125,3.479,3.479,0,0,1-1.087-.711,2.683,2.683,0,0,1-.418-.543.453.453,0,0,0-.752-.084l-1.17,1.17a.5.5,0,0,0-.042.627,4.474,4.474,0,0,0,.585.669,5.981,5.981,0,0,0,1,.794,5.432,5.432,0,0,0,1.923.752,5.976,5.976,0,0,0,3.887-.585,5.793,5.793,0,0,0,1.3-.961L18.969,10.4a5.72,5.72,0,0,0-.125-8.276Z" transform="translate(0)" fill="#fff"/>
    </g>
  </g>
</svg>
