<svg xmlns="http://www.w3.org/2000/svg" width="40" height="40" viewBox="0 0 40 40">
  <g id="Group_270" data-name="Group 270" transform="translate(-1068 -283)">
    <circle id="Ellipse_1653" data-name="Ellipse 1653" cx="20" cy="20" r="20" transform="translate(1068 283)" fill="#79c4f2"/>
    <g id="icons_utility_event-copy" data-name="icons/utility/event-copy" transform="translate(1077.769 292.385)">
      <path id="Mask" d="M17.939,8.115H.856a.641.641,0,0,0-.625.625V18.949A1.672,1.672,0,0,0,1.9,20.615h15a1.672,1.672,0,0,0,1.667-1.667V8.74A.641.641,0,0,0,17.939,8.115ZM6.481,17.282a.394.394,0,0,1-.417.417H4.4a.394.394,0,0,1-.417-.417V15.615A.394.394,0,0,1,4.4,15.2H6.064a.394.394,0,0,1,.417.417Zm0-4.167a.394.394,0,0,1-.417.417H4.4a.394.394,0,0,1-.417-.417V11.449a.394.394,0,0,1,.417-.417H6.064a.394.394,0,0,1,.417.417Zm4.167,4.167a.394.394,0,0,1-.417.417H8.564a.394.394,0,0,1-.417-.417V15.615a.394.394,0,0,1,.417-.417h1.667a.394.394,0,0,1,.417.417Zm0-4.167a.394.394,0,0,1-.417.417H8.564a.394.394,0,0,1-.417-.417V11.449a.394.394,0,0,1,.417-.417h1.667a.394.394,0,0,1,.417.417Zm4.167,4.167a.394.394,0,0,1-.417.417H12.731a.394.394,0,0,1-.417-.417V15.615a.394.394,0,0,1,.417-.417H14.4a.394.394,0,0,1,.417.417Zm0-4.167a.394.394,0,0,1-.417.417H12.731a.394.394,0,0,1-.417-.417V11.449a.394.394,0,0,1,.417-.417H14.4a.394.394,0,0,1,.417.417ZM16.9,2.7H14.814V1.865a1.25,1.25,0,0,0-2.5,0V2.7H6.481V1.865a1.25,1.25,0,1,0-2.5,0V2.7H1.9A1.672,1.672,0,0,0,.231,4.365V5.407a.641.641,0,0,0,.625.625H17.939a.641.641,0,0,0,.625-.625V4.365A1.672,1.672,0,0,0,16.9,2.7Z" transform="translate(0 0)" fill="#fff"/>
    </g>
  </g>
</svg>
