<svg xmlns="http://www.w3.org/2000/svg" width="40" height="40" viewBox="0 0 40 40">
  <g id="Group_269" data-name="Group 269" transform="translate(-403 -283)">
    <circle id="Ellipse_1649" data-name="Ellipse 1649" cx="20" cy="20" r="20" transform="translate(403 283)" fill="#79c4f2"/>
    <g id="icons_utility_inbox" data-name="icons/utility/inbox" transform="translate(412.385 293.769)">
      <path id="Mask" d="M20.615,1.9A1.672,1.672,0,0,0,18.949.231H2.282A1.672,1.672,0,0,0,.615,1.9v15a1.672,1.672,0,0,0,1.667,1.667H18.949A1.672,1.672,0,0,0,20.615,16.9ZM7.7,13.147a.394.394,0,0,1-.417.417H3.532a.394.394,0,0,1-.417-.417V11.481a.394.394,0,0,1,.417-.417h3.75a.394.394,0,0,1,.417.417Zm0-4.167a.394.394,0,0,1-.417.417H3.532a.394.394,0,0,1-.417-.417V7.314A.394.394,0,0,1,3.532,6.9h3.75a.394.394,0,0,1,.417.417Zm0-4.167a.394.394,0,0,1-.417.417H3.532a.394.394,0,0,1-.417-.417V3.147a.394.394,0,0,1,.417-.417h3.75a.394.394,0,0,1,.417.417ZM18.115,15.647a.394.394,0,0,1-.417.417H9.782a.394.394,0,0,1-.417-.417V3.147a.394.394,0,0,1,.417-.417H17.7a.394.394,0,0,1,.417.417Z" transform="translate(0 0)" fill="#fff"/>
    </g>
  </g>
</svg>
