<svg xmlns="http://www.w3.org/2000/svg" width="14.918" height="15" viewBox="0 0 14.918 15">
  <g id="icons_utility_announcement-copy" data-name="icons/utility/announcement-copy" transform="translate(-0.615 -0.615)">
    <path id="Mask" d="M7.076,14.18l-.406-.312a1.483,1.483,0,0,1-.437-1.248v-.905a.48.48,0,0,0-.468-.468H3.892a.48.48,0,0,0-.468.468v2.4a1.346,1.346,0,0,0,1.28,1.5H6.233c.905,0,.967-.624.967-.624s.156-.562-.125-.811Zm6.96-8.551V1.353A.818.818,0,0,0,12.6.884L9.822,3.506a2.368,2.368,0,0,1-1.56.531H3.518A3.034,3.034,0,0,0,.615,7.1v.062A2.825,2.825,0,0,0,3.518,10H8.262a2.478,2.478,0,0,1,1.592.624L12.6,13.306c.5.5,1.436.312,1.436-.437V8.624a1.425,1.425,0,0,0,1.5-1.5,1.425,1.425,0,0,0-1.5-1.5Z" transform="translate(0 0)" fill="#fff"/>
  </g>
</svg>
