<svg xmlns="http://www.w3.org/2000/svg" width="15" height="15" viewBox="0 0 15 15">
  <g id="icons_utility_description-copy" data-name="icons/utility/description-copy" transform="translate(-0.231 -0.231)">
    <path id="Mask" d="M13.867.231H1.594A1.368,1.368,0,0,0,.231,1.594V13.867a1.368,1.368,0,0,0,1.364,1.364H13.867a1.368,1.368,0,0,0,1.364-1.364V1.594A1.368,1.368,0,0,0,13.867.231ZM2.958,3.64A.322.322,0,0,1,3.3,3.3H6.708a.322.322,0,0,1,.341.341V7.049a.322.322,0,0,1-.341.341H3.3a.322.322,0,0,1-.341-.341ZM11.14,12.5a.322.322,0,0,1-.341.341H3.3a.322.322,0,0,1-.341-.341v-.682a.322.322,0,0,1,.341-.341h7.5a.322.322,0,0,1,.341.341ZM12.5,9.776a.322.322,0,0,1-.341.341H3.3a.322.322,0,0,1-.341-.341V9.094A.322.322,0,0,1,3.3,8.753h8.864a.322.322,0,0,1,.341.341Zm0-2.727a.322.322,0,0,1-.341.341H8.753a.322.322,0,0,1-.341-.341V6.367a.322.322,0,0,1,.341-.341h3.409a.322.322,0,0,1,.341.341Zm0-2.727a.322.322,0,0,1-.341.341H8.753a.322.322,0,0,1-.341-.341V3.64A.322.322,0,0,1,8.753,3.3h3.409a.322.322,0,0,1,.341.341Z" fill="#fff"/>
  </g>
</svg>
