<svg xmlns="http://www.w3.org/2000/svg" width="20" height="20.036" viewBox="0 0 20 20.036">
  <g id="icons_utility_new-copy" data-name="icons/utility/new-copy" transform="translate(-0.615 -0.615)">
    <path id="Mask" d="M17.711,3.525A10.03,10.03,0,0,0,3.525,17.711,10.03,10.03,0,0,0,17.711,3.525Zm-.417,7.927a.394.394,0,0,1-.417.417H12.287a.449.449,0,0,0-.417.417v4.589a.449.449,0,0,1-.417.417H9.784a.394.394,0,0,1-.417-.417V12.287a.394.394,0,0,0-.417-.417H4.36a.394.394,0,0,1-.417-.417V9.784a.449.449,0,0,1,.417-.417H8.949a.394.394,0,0,0,.417-.417V4.36a.449.449,0,0,1,.417-.417h1.669a.418.418,0,0,1,.417.417V8.949a.394.394,0,0,0,.417.417h4.589a.449.449,0,0,1,.417.417Z" fill="#fff"/>
  </g>
</svg>
