<svg xmlns="http://www.w3.org/2000/svg" width="15" height="15" viewBox="0 0 15 15">
  <g id="icons_utility_questions_and_answers" data-name="icons/utility/questions_and_answers" transform="translate(-0.615 -0.615)">
    <path id="Mask" d="M15.615,8.74A2.812,2.812,0,0,0,13.74,6.084a5.627,5.627,0,0,0-11.25,0,2.815,2.815,0,0,0,.219,5.375,5.653,5.653,0,0,0,5.406,4.156,5.653,5.653,0,0,0,5.406-4.156A2.821,2.821,0,0,0,15.615,8.74ZM12.49,5.928,12.459,5.9l.125.031ZM8.115,14.365a4.456,4.456,0,0,1-4.375-4.5A6.086,6.086,0,0,1,4.115,7.74c.031-.094.094-.187.125-.281A4.8,4.8,0,0,0,6.522,5.584,6.078,6.078,0,0,0,11.24,7.9a6.655,6.655,0,0,0,.906,0A6.226,6.226,0,0,1,12.428,9.3c-.187.781-1.406,1.531-3.125,1.625a.52.52,0,0,0-.437-.312H7.3a.483.483,0,0,0-.437.5v.937a.427.427,0,0,0,.437.437H8.865a.417.417,0,0,0,.437-.281,5.987,5.987,0,0,0,2.906-.812,4.348,4.348,0,0,1-4.094,2.969Z" fill="#fff"/>
  </g>
</svg>
