<svg xmlns="http://www.w3.org/2000/svg" width="13.982" height="15" viewBox="0 0 13.982 15">
  <g id="icons_utility_settings" data-name="icons/utility/settings" transform="translate(-0.231 -0.615)">
    <path id="Mask" d="M7.242,5.95a2.2,2.2,0,1,0,2.2,2.2A2.183,2.183,0,0,0,7.242,5.95Zm6.59,4.174L12.67,9.151a6.093,6.093,0,0,0,0-2.134l1.161-.973a1.058,1.058,0,0,0,.251-1.318l-.5-.879a1.053,1.053,0,0,0-.91-.5,1.128,1.128,0,0,0-.345.063l-1.444.533A5.27,5.27,0,0,0,9.03,2.875L8.779,1.4A.991.991,0,0,0,7.744.615h-1A.991.991,0,0,0,5.7,1.4L5.453,2.843A5.622,5.622,0,0,0,3.57,3.91L2.127,3.377a1.335,1.335,0,0,0-.345-.063,1.053,1.053,0,0,0-.91.5l-.5.879A1.02,1.02,0,0,0,.62,6.013l1.161.973a6.128,6.128,0,0,0-.094,1.067A5.869,5.869,0,0,0,1.781,9.12L.62,10.092A1.058,1.058,0,0,0,.369,11.41l.5.879a1.053,1.053,0,0,0,.91.5,1.128,1.128,0,0,0,.345-.063l1.444-.533a5.27,5.27,0,0,0,1.851,1.067l.251,1.506a1.02,1.02,0,0,0,1.036.847h1a1.072,1.072,0,0,0,1.036-.879L9,13.23a5.359,5.359,0,0,0,1.946-1.161l1.349.533a1.575,1.575,0,0,0,.377.063,1.053,1.053,0,0,0,.91-.5l.471-.816a.909.909,0,0,0-.22-1.224ZM7.242,11.6a3.452,3.452,0,1,1,3.452-3.452A3.442,3.442,0,0,1,7.242,11.6Z" transform="translate(0)" fill="#fff"/>
  </g>
</svg>
