<svg xmlns="http://www.w3.org/2000/svg" width="20.542" height="15" viewBox="0 0 20.542 15">
  <g id="icons_utility_groups-copy" data-name="icons/utility/groups-copy" transform="translate(0 -0.462)">
    <path id="Mask" d="M6.293,8.773a5.019,5.019,0,0,1-.831-2.85A5.219,5.219,0,0,1,7.4,1.688,2.467,2.467,0,0,0,5.185.462,2.792,2.792,0,0,0,2.454,3.509a2.72,2.72,0,0,0,.871,2.137,1.721,1.721,0,0,1,.594,1.108c0,.4-.158.792-1.148,1.227C1.346,8.615.04,9.485,0,10.791a1.473,1.473,0,0,0,1.425,1.544H2.731a.618.618,0,0,0,.515-.317,6.452,6.452,0,0,1,2.81-2.375.586.586,0,0,0,.237-.871ZM17.85,7.981C16.86,7.546,16.7,7.19,16.7,6.754A1.555,1.555,0,0,1,17.3,5.646a2.777,2.777,0,0,0,.871-2.137A2.768,2.768,0,0,0,15.435.462a2.582,2.582,0,0,0-2.256,1.227,5.219,5.219,0,0,1,1.939,4.235,5.019,5.019,0,0,1-.831,2.85.605.605,0,0,0,.237.871,6.2,6.2,0,0,1,2.81,2.375.618.618,0,0,0,.515.317h1.306a1.419,1.419,0,0,0,1.385-1.544c.04-1.306-1.266-2.177-2.691-2.81Zm-4.908,2.889c-1.069-.475-1.266-.91-1.266-1.346A1.753,1.753,0,0,1,12.348,8.3a3.191,3.191,0,0,0,.989-2.375,3.023,3.023,0,1,0-6.016,0A3.191,3.191,0,0,0,8.311,8.3a1.923,1.923,0,0,1,.673,1.227c0,.475-.158.871-1.266,1.346-1.583.673-3.087,1.425-3.127,2.85a1.684,1.684,0,0,0,1.623,1.741h8.232a1.684,1.684,0,0,0,1.623-1.741C16.029,12.335,14.525,11.583,12.942,10.871Z" transform="translate(0 0)" fill="#fff"/>
  </g>
</svg>
