<svg xmlns="http://www.w3.org/2000/svg" width="14.97" height="15" viewBox="0 0 14.97 15">
  <g id="icons_utility_metrics-copy" data-name="icons/utility/metrics-copy" transform="translate(-0.615 -0.615)">
    <path id="Mask" d="M14.022.615H2.209A1.6,1.6,0,0,0,.615,2.209V13.99a1.607,1.607,0,0,0,1.594,1.625H13.99a1.6,1.6,0,0,0,1.594-1.594V2.209A1.554,1.554,0,0,0,14.022.615ZM4.9,12.4a.548.548,0,0,1-.531.531H3.834A.548.548,0,0,1,3.3,12.4V9.459a.548.548,0,0,1,.531-.531h.531a.548.548,0,0,1,.531.531Zm2.687,0a.548.548,0,0,1-.531.531H6.522A.548.548,0,0,1,5.99,12.4V5.428A.548.548,0,0,1,6.522,4.9h.531a.548.548,0,0,1,.531.531Zm2.687,0a.548.548,0,0,1-.531.531H9.209a.548.548,0,0,1-.531-.531V3.834A.548.548,0,0,1,9.209,3.3H9.74a.548.548,0,0,1,.531.531Zm2.656,0a.548.548,0,0,1-.531.531h-.531a.548.548,0,0,1-.531-.531V7.3a.548.548,0,0,1,.531-.531H12.4a.548.548,0,0,1,.531.531Z" fill="#fff"/>
  </g>
</svg>
