<svg xmlns="http://www.w3.org/2000/svg" width="36" height="36" viewBox="0 0 36 36">
  <g id="Group_277" data-name="Group 277" transform="translate(-1345 -257)">
    <g id="Rectangle_1090" data-name="Rectangle 1090" transform="translate(1345 257)" fill="#fff" stroke="#06529c" stroke-width="1">
      <rect width="36" height="36" rx="18" stroke="none"/>
      <rect x="0.5" y="0.5" width="35" height="35" rx="17.5" fill="none"/>
    </g>
    <g id="icons_utility_close-copy" data-name="icons/utility/close-copy" transform="translate(1356.538 268.539)">
      <path id="Mask" d="M7.677,5.954l4-4.031a.446.446,0,0,0,0-.646L11.062.631a.446.446,0,0,0-.646,0L6.385,4.662a.3.3,0,0,1-.431,0L1.923.6a.446.446,0,0,0-.646,0l-.646.646a.446.446,0,0,0,0,.646L4.662,5.923a.3.3,0,0,1,0,.431L.6,10.415a.446.446,0,0,0,0,.646l.646.646a.446.446,0,0,0,.646,0L5.923,7.677a.3.3,0,0,1,.431,0l4.031,4.031a.446.446,0,0,0,.646,0l.646-.646a.446.446,0,0,0,0-.646l-4-4.031a.3.3,0,0,1,0-.431Z" fill="#06529c"/>
    </g>
  </g>
</svg>
