<svg xmlns="http://www.w3.org/2000/svg" width="30" height="30" viewBox="0 0 30 30">
  <g id="Group_268" data-name="Group 268" transform="translate(-1050 -698)">
    <circle id="Ellipse_13" data-name="Ellipse 13" cx="15" cy="15" r="15" transform="translate(1050 698)" fill="#06529c"/>
    <g id="icons_utility_check-copy" data-name="icons/utility/check-copy" transform="translate(1057.385 708.923)">
      <path id="Mask" d="M5.831,10.369.754,5.262a.483.483,0,0,1,0-.677l.677-.677a.483.483,0,0,1,.677,0L5.923,7.754a.335.335,0,0,0,.462,0L13.862.215a.483.483,0,0,1,.677,0l.677.677a.483.483,0,0,1,0,.677l-8.708,8.8a.435.435,0,0,1-.677,0Z" fill="#fff"/>
    </g>
  </g>
</svg>
