<svg xmlns="http://www.w3.org/2000/svg" width="9.239" height="12.846" viewBox="0 0 9.239 12.846">
  <path id="Union_1" data-name="Union 1" d="M100.269-2993.292l-4.154-4.216a.51.51,0,0,1,0-.646l.677-.677a.483.483,0,0,1,.677,0l2.8,2.862a.483.483,0,0,0,.677,0l2.8-2.893a.484.484,0,0,1,.678,0l.677.677a.483.483,0,0,1,0,.677l-4.154,4.216a.477.477,0,0,1-.338.138A.477.477,0,0,1,100.269-2993.292Zm3.477-7-2.8-2.893a.483.483,0,0,0-.677,0l-2.8,2.862a.483.483,0,0,1-.677,0l-.677-.677a.51.51,0,0,1,0-.646l4.154-4.216a.483.483,0,0,1,.677,0l4.154,4.216a.483.483,0,0,1,0,.677l-.677.677a.479.479,0,0,1-.339.138A.479.479,0,0,1,103.746-3000.292Z" transform="translate(-96 3006)" fill="#06529c"/>
</svg>
